<?xml version="1.0" encoding="UTF-8" standalone="no"?>
<!-- Generator: Adobe Illustrator 19.0.0, SVG Export Plug-In . SVG Version: 6.00 Build 0)  -->

<svg
   version="1.1"
   id="Layer_1"
   x="0px"
   y="0px"
   viewBox="0 0 512 512"
   style="enable-background:new 0 0 512 512;"
   xml:space="preserve"
   sodipodi:docname="streamline.svg"
   inkscape:version="1.1 (c4e8f9ed74, 2021-05-24)"
   xmlns:inkscape="http://www.inkscape.org/namespaces/inkscape"
   xmlns:sodipodi="http://sodipodi.sourceforge.net/DTD/sodipodi-0.dtd"
   xmlns="http://www.w3.org/2000/svg"
   xmlns:svg="http://www.w3.org/2000/svg"><defs
   id="defs65" /><sodipodi:namedview
   id="namedview63"
   pagecolor="#ffffff"
   bordercolor="#666666"
   borderopacity="1.0"
   inkscape:pageshadow="2"
   inkscape:pageopacity="0.0"
   inkscape:pagecheckerboard="true"
   showgrid="false"
   inkscape:zoom="1.6894531"
   inkscape:cx="255.70405"
   inkscape:cy="255.70405"
   inkscape:window-width="1859"
   inkscape:window-height="1049"
   inkscape:window-x="61"
   inkscape:window-y="0"
   inkscape:window-maximized="1"
   inkscape:current-layer="Layer_1" />
<g
   id="g6"
   style="fill:#ffffff">
	<g
   id="g4"
   style="fill:#ffffff">
		<path
   d="M256.006,33.025c-6.155,0-11.131,4.975-11.131,11.131c0,6.144,4.975,11.131,11.131,11.131    c6.144,0,11.131-4.987,11.131-11.131C267.136,38,262.15,33.025,256.006,33.025z"
   id="path2"
   style="fill:#ffffff" />
	</g>
</g>
<g
   id="g12"
   style="fill:#ffffff">
	<g
   id="g10"
   style="fill:#ffffff">
		<path
   d="M404.467,0H107.533C83.978,0,64.814,19.164,64.814,42.72v426.561c0,23.556,19.164,42.72,42.719,42.72h296.933    c23.556,0,42.72-19.164,42.72-42.72V42.72C447.186,19.164,428.022,0,404.467,0z M424.925,469.28    c0,11.281-9.177,20.458-20.458,20.458H107.533c-11.281,0-20.458-9.177-20.458-20.458V42.72c0-11.281,9.178-20.458,20.458-20.458    h296.933c11.281,0,20.458,9.177,20.458,20.458V469.28z"
   id="path8"
   style="fill:#ffffff" />
	</g>
</g>
<g
   id="g18"
   style="fill:#ffffff">
	<g
   id="g16"
   style="fill:#ffffff">
		<path
   d="M340.454,67.897h-3.478c-6.146,0-11.131,4.983-11.131,11.131c0,6.147,4.984,11.131,11.131,11.131h3.478    c6.146,0,11.131-4.983,11.131-11.131C351.585,72.88,346.6,67.897,340.454,67.897z"
   id="path14"
   style="fill:#ffffff" />
	</g>
</g>
<g
   id="g24"
   style="fill:#ffffff">
	<g
   id="g22"
   style="fill:#ffffff">
		<path
   d="M388.873,67.897h-17.392c-6.146,0-11.131,4.983-11.131,11.131c0,6.147,4.984,11.131,11.131,11.131h6.261v331.683H134.258    V90.159h169.325c6.146,0,11.131-4.983,11.131-11.131c0-6.148-4.984-11.131-11.131-11.131H123.128    c-6.146,0-11.131,4.983-11.131,11.131v353.944c0,6.147,4.984,11.131,11.131,11.131h265.745c6.146,0,11.131-4.983,11.131-11.131    V79.028C400.003,72.88,395.02,67.897,388.873,67.897z"
   id="path20"
   style="fill:#ffffff" />
	</g>
</g>
<g
   id="g30"
   style="fill:#ffffff">
	<g
   id="g28"
   style="fill:#ffffff">
		<path
   d="M276.041,455.801h-40.082c-6.146,0-11.131,4.983-11.131,11.131c0,6.147,4.984,11.131,11.131,11.131h40.082    c6.146,0,11.131-4.983,11.131-11.131C287.172,460.784,282.187,455.801,276.041,455.801z"
   id="path26"
   style="fill:#ffffff" />
	</g>
</g>
<g
   id="g32">
</g>
<g
   id="g34">
</g>
<g
   id="g36">
</g>
<g
   id="g38">
</g>
<g
   id="g40">
</g>
<g
   id="g42">
</g>
<g
   id="g44">
</g>
<g
   id="g46">
</g>
<g
   id="g48">
</g>
<g
   id="g50">
</g>
<g
   id="g52">
</g>
<g
   id="g54">
</g>
<g
   id="g56">
</g>
<g
   id="g58">
</g>
<g
   id="g60">
</g>
</svg>
