<?xml version="1.0" encoding="UTF-8" standalone="no"?>
<!-- Generator: Adobe Illustrator 19.0.0, SVG Export Plug-In . SVG Version: 6.00 Build 0)  -->

<svg
   version="1.1"
   id="Layer_1"
   x="0px"
   y="0px"
   viewBox="0 0 256 256"
   xml:space="preserve"
   sodipodi:docname="Streamline.svg"
   width="256"
   height="256"
   inkscape:version="1.1 (c4e8f9ed74, 2021-05-24)"
   xmlns:inkscape="http://www.inkscape.org/namespaces/inkscape"
   xmlns:sodipodi="http://sodipodi.sourceforge.net/DTD/sodipodi-0.dtd"
   xmlns="http://www.w3.org/2000/svg"
   xmlns:svg="http://www.w3.org/2000/svg"
   xmlns:rdf="http://www.w3.org/1999/02/22-rdf-syntax-ns#"
   xmlns:cc="http://creativecommons.org/ns#"><defs
   id="defs65" /><sodipodi:namedview
   id="namedview63"
   pagecolor="#ffffff"
   bordercolor="#666666"
   borderopacity="1.0"
   inkscape:pageshadow="2"
   inkscape:pageopacity="0.0"
   inkscape:pagecheckerboard="0"
   showgrid="false"
   width="256px"
   inkscape:zoom="1.6894531"
   inkscape:cx="274.05318"
   inkscape:cy="97.072832"
   inkscape:window-width="1859"
   inkscape:window-height="1049"
   inkscape:window-x="61"
   inkscape:window-y="0"
   inkscape:window-maximized="1"
   inkscape:current-layer="Layer_1" />
<g
   id="g6"
   transform="matrix(0.49999902,0,0,0.49999902,-0.40693648,0)">
	<g
   id="g4">
		<path
   d="m 256.006,33.025 c -6.155,0 -11.131,4.975 -11.131,11.131 0,6.144 4.975,11.131 11.131,11.131 6.144,0 11.131,-4.987 11.131,-11.131 C 267.136,38 262.15,33.025 256.006,33.025 Z"
   id="path2" />
	</g>
</g>
<g
   id="g12"
   transform="matrix(0.49999902,0,0,0.49999902,-0.40693648,0)">
	<g
   id="g10">
		<path
   d="M 404.467,0 H 107.533 C 83.978,0 64.814,19.164 64.814,42.72 v 426.561 c 0,23.556 19.164,42.72 42.719,42.72 h 296.933 c 23.556,0 42.72,-19.164 42.72,-42.72 V 42.72 C 447.186,19.164 428.022,0 404.467,0 Z m 20.458,469.28 c 0,11.281 -9.177,20.458 -20.458,20.458 H 107.533 c -11.281,0 -20.458,-9.177 -20.458,-20.458 V 42.72 c 0,-11.281 9.178,-20.458 20.458,-20.458 h 296.933 c 11.281,0 20.458,9.177 20.458,20.458 v 426.56 z"
   id="path8" />
	</g>
</g>
<g
   id="g18"
   transform="matrix(0.49999902,0,0,0.49999902,-0.40693648,0)">
	<g
   id="g16">
		<path
   d="m 340.454,67.897 h -3.478 c -6.146,0 -11.131,4.983 -11.131,11.131 0,6.147 4.984,11.131 11.131,11.131 h 3.478 c 6.146,0 11.131,-4.983 11.131,-11.131 0,-6.148 -4.985,-11.131 -11.131,-11.131 z"
   id="path14" />
	</g>
</g>
<g
   id="g24"
   transform="matrix(0.49999902,0,0,0.49999902,-0.40693648,0)">
	<g
   id="g22">
		<path
   d="m 388.873,67.897 h -17.392 c -6.146,0 -11.131,4.983 -11.131,11.131 0,6.147 4.984,11.131 11.131,11.131 h 6.261 V 421.842 H 134.258 V 90.159 h 169.325 c 6.146,0 11.131,-4.983 11.131,-11.131 0,-6.148 -4.984,-11.131 -11.131,-11.131 H 123.128 c -6.146,0 -11.131,4.983 -11.131,11.131 v 353.944 c 0,6.147 4.984,11.131 11.131,11.131 h 265.745 c 6.146,0 11.131,-4.983 11.131,-11.131 V 79.028 C 400.003,72.88 395.02,67.897 388.873,67.897 Z"
   id="path20" />
	</g>
</g>
<g
   id="g30"
   transform="matrix(0.49999902,0,0,0.49999902,-0.40693648,0)">
	<g
   id="g28">
		<path
   d="m 276.041,455.801 h -40.082 c -6.146,0 -11.131,4.983 -11.131,11.131 0,6.147 4.984,11.131 11.131,11.131 h 40.082 c 6.146,0 11.131,-4.983 11.131,-11.131 0,-6.148 -4.985,-11.131 -11.131,-11.131 z"
   id="path26" />
	</g>
</g>
<g
   id="g32">
</g>
<g
   id="g34">
</g>
<g
   id="g36">
</g>
<g
   id="g38">
</g>
<g
   id="g40">
</g>
<g
   id="g42">
</g>
<g
   id="g44">
</g>
<g
   id="g46">
</g>
<g
   id="g48">
</g>
<g
   id="g50">
</g>
<g
   id="g52">
</g>
<g
   id="g54">
</g>
<g
   id="g56">
</g>
<g
   id="g58">
</g>
<g
   id="g60">
</g>
<metadata
   id="metadata67"><rdf:RDF><cc:License
       rdf:about="http://creativecommons.org/publicdomain/zero/1.0/"><cc:permits
         rdf:resource="http://creativecommons.org/ns#Reproduction" /><cc:permits
         rdf:resource="http://creativecommons.org/ns#Distribution" /><cc:permits
         rdf:resource="http://creativecommons.org/ns#DerivativeWorks" /></cc:License><cc:Work
       rdf:about=""><cc:license
         rdf:resource="http://creativecommons.org/publicdomain/zero/1.0/" /></cc:Work></rdf:RDF></metadata></svg>
