<?xml version="1.0" encoding="UTF-8" standalone="no"?>
<!-- Created with Inkscape (http://www.inkscape.org/) -->

<svg
   width="320"
   height="64"
   viewBox="0 0 84.666664 16.933332"
   version="1.1"
   id="svg5"
   xmlns="http://www.w3.org/2000/svg"
   xmlns:svg="http://www.w3.org/2000/svg"
   xmlns:rdf="http://www.w3.org/1999/02/22-rdf-syntax-ns#"
   xmlns:cc="http://creativecommons.org/ns#">
  <defs
     id="defs2" />
  <g
     id="layer1">
    <path
       style="fill:none;fill-opacity:1;stroke:#ea9c3a;stroke-width:7.88656;stroke-linecap:butt;stroke-linejoin:round;stroke-miterlimit:2.4;stroke-dasharray:none;stroke-dashoffset:90.7994;stroke-opacity:1;paint-order:stroke markers fill"
       id="path868-36"
       transform="matrix(0.10067632,0,0,0.10067882,23.839684,7.6360462)"
       d="M 61.933628,72.144252 C 61.519285,72.443011 21.09129,42.157918 20.580473,42.156075 20.069656,42.154231 -20.575907,72.146696 -20.988083,71.844954 -21.400259,71.543211 -5.0903614,23.735295 -5.2464591,23.248909 -5.4025567,22.762524 -46.487256,-6.6255222 -46.327651,-7.1107683 -46.168046,-7.5960145 4.3400196,-6.857839 4.754363,-7.1565981 5.1687064,-7.4553572 20.422529,-55.610633 20.933346,-55.60879 c 0.510817,0.0018 15.416621,48.2659781 15.828797,48.5677204 0.412176,0.3017423 50.924255,-0.071809 51.080353,0.4145763 0.156097,0.4863856 -41.139675,29.5770853 -41.29928,30.0623313 -0.159604,0.485246 15.804756,48.409655 15.390412,48.708414 z" />
    <path
       style="fill:none;fill-opacity:1;stroke:#ea9c3a;stroke-width:7.88656;stroke-linecap:butt;stroke-linejoin:round;stroke-miterlimit:2.4;stroke-dasharray:none;stroke-dashoffset:90.7994;stroke-opacity:1;paint-order:stroke markers fill"
       id="path868-36-7"
       transform="matrix(0.10067632,0,0,0.10067882,74.639684,7.6360462)"
       d="M 61.933628,72.144252 C 61.519285,72.443011 21.09129,42.157918 20.580473,42.156075 20.069656,42.154231 -20.575907,72.146696 -20.988083,71.844954 -21.400259,71.543211 -5.0903614,23.735295 -5.2464591,23.248909 -5.4025567,22.762524 -46.487256,-6.6255222 -46.327651,-7.1107683 -46.168046,-7.5960145 4.3400196,-6.857839 4.754363,-7.1565981 5.1687064,-7.4553572 20.422529,-55.610633 20.933346,-55.60879 c 0.510817,0.0018 15.416621,48.2659781 15.828797,48.5677204 0.412176,0.3017423 50.924255,-0.071809 51.080353,0.4145763 0.156097,0.4863856 -41.139675,29.5770853 -41.29928,30.0623313 -0.159604,0.485246 15.804756,48.409655 15.390412,48.708414 z" />
    <path
       style="fill:none;fill-opacity:1;stroke:#ea9c3a;stroke-width:7.88656;stroke-linecap:butt;stroke-linejoin:round;stroke-miterlimit:2.4;stroke-dasharray:none;stroke-dashoffset:90.7994;stroke-opacity:1;paint-order:stroke markers fill"
       id="path868-36-5"
       transform="matrix(0.10067632,0,0,0.10067882,57.706351,7.6360462)"
       d="M 61.933628,72.144252 C 61.519285,72.443011 21.09129,42.157918 20.580473,42.156075 20.069656,42.154231 -20.575907,72.146696 -20.988083,71.844954 -21.400259,71.543211 -5.0903614,23.735295 -5.2464591,23.248909 -5.4025567,22.762524 -46.487256,-6.6255222 -46.327651,-7.1107683 -46.168046,-7.5960145 4.3400196,-6.857839 4.754363,-7.1565981 5.1687064,-7.4553572 20.422529,-55.610633 20.933346,-55.60879 c 0.510817,0.0018 15.416621,48.2659781 15.828797,48.5677204 0.412176,0.3017423 50.924255,-0.071809 51.080353,0.4145763 0.156097,0.4863856 -41.139675,29.5770853 -41.29928,30.0623313 -0.159604,0.485246 15.804756,48.409655 15.390412,48.708414 z" />
    <path
       style="fill:none;fill-opacity:1;stroke:#ea9c3a;stroke-width:7.88656;stroke-linecap:butt;stroke-linejoin:round;stroke-miterlimit:2.4;stroke-dasharray:none;stroke-dashoffset:90.7994;stroke-opacity:1;paint-order:stroke markers fill"
       id="path868-36-3"
       transform="matrix(0.10067632,0,0,0.10067882,40.773017,7.6360462)"
       d="M 61.933628,72.144252 C 61.519285,72.443011 21.09129,42.157918 20.580473,42.156075 20.069656,42.154231 -20.575907,72.146696 -20.988083,71.844954 -21.400259,71.543211 -5.0903614,23.735295 -5.2464591,23.248909 -5.4025567,22.762524 -46.487256,-6.6255222 -46.327651,-7.1107683 -46.168046,-7.5960145 4.3400196,-6.857839 4.754363,-7.1565981 5.1687064,-7.4553572 20.422529,-55.610633 20.933346,-55.60879 c 0.510817,0.0018 15.416621,48.2659781 15.828797,48.5677204 0.412176,0.3017423 50.924255,-0.071809 51.080353,0.4145763 0.156097,0.4863856 -41.139675,29.5770853 -41.29928,30.0623313 -0.159604,0.485246 15.804756,48.409655 15.390412,48.708414 z" />
    <path
       style="fill:none;fill-opacity:1;stroke:#ea9c3a;stroke-width:7.88656;stroke-linecap:butt;stroke-linejoin:round;stroke-miterlimit:2.4;stroke-dasharray:none;stroke-dashoffset:90.7994;stroke-opacity:1;paint-order:stroke markers fill"
       id="path868-36-36"
       transform="matrix(0.10067632,0,0,0.10067882,6.377184,7.6360462)"
       d="M 61.933628,72.144252 C 61.519285,72.443011 21.09129,42.157918 20.580473,42.156075 20.069656,42.154231 -20.575907,72.146696 -20.988083,71.844954 -21.400259,71.543211 -5.0903614,23.735295 -5.2464591,23.248909 -5.4025567,22.762524 -46.487256,-6.6255222 -46.327651,-7.1107683 -46.168046,-7.5960145 4.3400196,-6.857839 4.754363,-7.1565981 5.1687064,-7.4553572 20.422529,-55.610633 20.933346,-55.60879 c 0.510817,0.0018 15.416621,48.2659781 15.828797,48.5677204 0.412176,0.3017423 50.924255,-0.071809 51.080353,0.4145763 0.156097,0.4863856 -41.139675,29.5770853 -41.29928,30.0623313 -0.159604,0.485246 15.804756,48.409655 15.390412,48.708414 z" />
  </g>
  <metadata
     id="metadata113">
    <rdf:RDF>
      <cc:Work
         rdf:about="">
        <cc:license
           rdf:resource="http://creativecommons.org/publicdomain/zero/1.0/" />
      </cc:Work>
      <cc:License
         rdf:about="http://creativecommons.org/publicdomain/zero/1.0/">
        <cc:permits
           rdf:resource="http://creativecommons.org/ns#Reproduction" />
        <cc:permits
           rdf:resource="http://creativecommons.org/ns#Distribution" />
        <cc:permits
           rdf:resource="http://creativecommons.org/ns#DerivativeWorks" />
      </cc:License>
    </rdf:RDF>
  </metadata>
</svg>
