<?xml version="1.0" encoding="UTF-8" standalone="no"?>

<svg
   version="1.1"
   id="Capa_1"
   x="0px"
   y="0px"
   width="256"
   height="256"
   viewBox="0 0 256 256"
   xml:space="preserve"
   sodipodi:docname="book.svg"
   inkscape:version="1.1 (c4e8f9ed74, 2021-05-24)"
   xmlns:inkscape="http://www.inkscape.org/namespaces/inkscape"
   xmlns:sodipodi="http://sodipodi.sourceforge.net/DTD/sodipodi-0.dtd"
   xmlns="http://www.w3.org/2000/svg"
   xmlns:svg="http://www.w3.org/2000/svg"
   xmlns:rdf="http://www.w3.org/1999/02/22-rdf-syntax-ns#"
   xmlns:cc="http://creativecommons.org/ns#"><defs
   id="defs39" /><sodipodi:namedview
   id="namedview37"
   pagecolor="#ffffff"
   bordercolor="#666666"
   borderopacity="1.0"
   inkscape:pageshadow="2"
   inkscape:pageopacity="0.0"
   inkscape:pagecheckerboard="0"
   showgrid="false"
   width="256px"
   />
<g id="g4"
   transform="matrix(5.12,0,0,5.12,0,-0.26912)">
	<path
   d="m 48.336,7.54 c -0.701,0 -1.359,0.007 -2.018,0.024 V 5.326 H 45.584 C 31.322,5.326 26.541,8.737 24.999,10.578 23.457,8.737 18.676,5.326 4.414,5.326 H 3.68 V 7.563 C 3.022,7.545 2.364,7.54 1.664,7.54 H 0 v 32.35 h 1.664 c 17.595,0 21.186,4.035 21.698,4.784 h 3.302 C 27.221,43.89 30.882,39.89 48.337,39.89 H 50 V 7.54 Z M 23.899,38.431 C 21.442,36.619 16.288,34.517 5.516,34.377 V 7.175 c 15.087,0.194 18.001,4.327 18.383,5 z m 20.585,-4.054 c -10.772,0.14 -15.926,2.24 -18.383,4.054 V 12.184 C 26.517,11.447 29.513,7.37 44.484,7.177 Z"
   id="path2" />
</g>
</svg>
