<?xml version="1.0" encoding="UTF-8" standalone="no"?>

<svg
   version="1.1"
   x="0px"
   y="0px"
   viewBox="0 0 256 256"
   enable-background="new 0 0 1000 1000"
   xml:space="preserve"
   id="svg72"
   width="256"
   height="256"
   xmlns="http://www.w3.org/2000/svg"
   xmlns:svg="http://www.w3.org/2000/svg"
   xmlns:rdf="http://www.w3.org/1999/02/22-rdf-syntax-ns#"
   xmlns:cc="http://creativecommons.org/ns#"><defs
   id="defs76" />
<g
   id="g70"
   transform="matrix(0.26122445,0,0,0.26122445,-2.6122445,-2.3379212)"><g
     id="g38"><path
       d="M 981.2,247.5 508.7,720 c -11.9,11.8 -31.1,11.8 -43,0 l -9.5,-9.5 v 0 l -10.3,-10.3 -44.6,-44.6 -0.6,-0.9 -204.3,-206 c -11.8,-11.8 -11.8,-31.1 0,-43 l 64.4,-64.3 c 11.9,-11.9 31.1,-11.9 43,0 L 487.6,526.5 873.9,140.1 c 11.9,-11.9 31.1,-11.9 43,0 l 64.5,64.5 c 11.5,11.8 11.5,31.1 -0.2,42.9 z"
       id="path4" /><path
       d="m 776.8,805.6 c 0,34.2 -27.9,62.1 -62.2,62.1 H 134.4 c -34.3,0 -62.2,-27.9 -62.2,-62.1 V 194.4 c 0,-34.2 27.9,-62.1 62.2,-62.1 h 580.2 c 34.3,0 62.2,27.9 62.2,62.1 v 0 L 821,153.5 C 828.1,103.2 777.3,70.2 714.6,70.2 H 134.4 C 65.7,70.1 10,125.7 10,194.4 v 611.2 c 0,68.6 55.7,124.3 124.4,124.3 H 714.6 C 783.3,929.9 839,874.2 839,805.6 V 441.2 l -62.2,67.7 z"
       id="path6" /></g></g>
</svg>
