<svg enable-background="new 0 0 511.977 511.977" version="1.1" viewBox="0 0 511.98 511.98" xmlns="http://www.w3.org/2000/svg"><path d="m327.11 76.48c-16.64 16.64-16.64 43.627 0 60.373 8 8 18.88 12.48 30.187 12.48 23.573 0 42.667-19.093 42.667-42.667 0-11.307-4.48-22.187-12.48-30.187-16.108-16.106-44.268-16.106-60.374 1e-3zm45.866 44.8-0.533 0.533c-8.427 8.107-21.76 8.107-30.187 0-8.427-8.427-8.427-21.867 0-30.187 8.213-8.427 21.653-8.747 30.187-0.533s8.747 21.654 0.533 30.187z"/><path d="m495.43 139.63-42.134-124.27v-4.693c0-5.867-4.799-10.667-10.666-10.667h-139.84c-2.88 0-5.547 1.173-7.573 3.093l-268.91 269.12c-13.76 14.4-13.76 37.013 0 51.413l104.11 103.47c3.947 3.84 8.64 6.72 13.867 8.427 0.533 3.307 2.56 6.187 5.547 7.68l131.73 65.173c17.28 8.533 38.293 1.387 46.827-15.893 0.107-0.107 0.107-0.213 0.213-0.427l0.533-1.067 113.49 10.347c16.107 0 32-15.253 32-30.933v-278.4c-0.107-0.533-0.213-1.067-0.32-1.707l20.587-42.667c1.28-2.453 1.386-5.439 0.533-7.999zm-349.97 272.32-104.11-103.47c-5.44-5.973-5.44-15.147 0-21.12l265.81-266.03h124.8v126.4l-266.35 264.21c-5.653 5.44-14.506 5.44-20.16 0zm307.84 58.453c0 3.307-5.653 9.6-9.707 9.6l-104.64-9.493 114.35-236.69v236.59zm-143.89 12.373c-1.6 3.413-4.48 5.973-8 7.147-3.413 1.173-7.147 0.96-10.347-0.64l-116.16-57.6c2.133-1.387 4.053-2.88 5.76-4.693l269.44-267.31c2.027-2.027 3.2-4.693 3.2-7.573v-70.294l20.48 60.48-164.37 340.48z"/></svg>
