<?xml version="1.0" encoding="UTF-8" standalone="no"?>

<svg
   version="1.1"
   id="Capa_1"
   x="0px"
   y="0px"
   viewBox="0 0 256 256"
   xml:space="preserve"
   sodipodi:docname="settings.svg"
   width="256"
   height="256"
   inkscape:version="1.1 (c4e8f9ed74, 2021-05-24)"
   xmlns:inkscape="http://www.inkscape.org/namespaces/inkscape"
   xmlns:sodipodi="http://sodipodi.sourceforge.net/DTD/sodipodi-0.dtd"
   xmlns="http://www.w3.org/2000/svg"
   xmlns:svg="http://www.w3.org/2000/svg"
   xmlns:rdf="http://www.w3.org/1999/02/22-rdf-syntax-ns#"
   xmlns:cc="http://creativecommons.org/ns#"><defs
   id="defs41" /><sodipodi:namedview
   id="namedview39"
   pagecolor="#ffffff"
   bordercolor="#666666"
   borderopacity="1.0"
   showgrid="false"
   width="256px"
/>
<g
   id="g6"
   transform="matrix(0.59417831,0,0,0.59417831,0,-0.56925426)">
	<path
   d="m 286.244,249.537 10.992,-45.639 c 0.035,-0.143 0.071,-0.285 0.109,-0.428 2.909,-10.867 11.469,-19.426 22.339,-22.338 l 33.347,-8.936 c -5.472,-6.525 -13.678,-10.682 -22.839,-10.682 h -9.837 c -2.511,-7.895 -5.7,-15.59 -9.515,-22.957 l 6.96,-6.959 c 11.622,-11.623 11.622,-30.535 0,-42.156 L 296.76,68.4 c -5.631,-5.629 -13.117,-8.73 -21.079,-8.73 -7.961,0 -15.447,3.102 -21.078,8.732 l -6.96,6.959 c -7.369,-3.814 -15.064,-7.004 -22.956,-9.516 V 56.01 c 0,-16.436 -13.372,-29.807 -29.808,-29.807 h -29.758 c -16.436,0 -29.808,13.371 -29.808,29.807 v 9.836 c -7.893,2.512 -15.588,5.701 -22.957,9.516 l -6.96,-6.961 c -5.631,-5.629 -13.117,-8.73 -21.078,-8.73 -7.961,0 -15.447,3.102 -21.079,8.732 L 42.2,89.443 c -11.622,11.621 -11.622,30.533 0,42.156 l 6.959,6.959 c -3.815,7.367 -7.004,15.063 -9.515,22.957 H 29.807 C 13.372,161.516 0,174.887 0,191.324 v 29.758 c 0,16.436 13.372,29.807 29.808,29.807 h 9.837 c 2.511,7.895 5.7,15.588 9.515,22.957 l -6.96,6.959 c -11.623,11.623 -11.623,30.533 0,42.158 l 21.041,21.039 c 5.632,5.631 13.118,8.732 21.079,8.732 7.961,0 15.447,-3.102 21.077,-8.732 l 6.96,-6.959 c 7.366,3.815 15.061,7.002 22.957,9.514 v 9.838 c 0,16.436 13.372,29.809 29.808,29.809 h 25.809 c -2.388,-5.691 -3.644,-11.852 -3.645,-18.209 -0.002,-12.572 4.892,-24.391 13.781,-33.279 z M 180,286.201 c -44.112,0 -80,-35.887 -80,-79.998 0,-44.113 35.888,-80.002 80,-80.002 44.112,0 80,35.889 80,80.002 0,44.111 -35.888,79.998 -80,79.998 z"
   id="path2" />
	<path
   d="m 425.267,218.734 -0.319,-0.32 c -0.939,-0.941 -2.189,-1.428 -3.541,-1.469 -1.326,0 -2.598,0.525 -3.536,1.465 l -21.596,21.596 c -3.304,3.305 -7.699,5.125 -12.375,5.125 -4.676,0 -9.072,-1.82 -12.379,-5.129 -3.307,-3.305 -5.128,-7.701 -5.128,-12.377 0.001,-4.676 1.821,-9.072 5.126,-12.377 l 21.596,-21.596 c 0.939,-0.939 1.465,-2.213 1.464,-3.539 -0.001,-1.328 -0.53,-2.6 -1.47,-3.537 l -0.314,-0.313 c -3.605,-3.605 -8.399,-5.592 -13.499,-5.592 -1.665,0 -3.325,0.219 -4.936,0.65 l -44.348,11.885 c -6.568,1.76 -11.741,6.932 -13.498,13.496 -0.011,0.041 -0.021,0.08 -0.031,0.121 l -11.817,49.063 -87.667,87.666 c -6.528,6.527 -10.122,15.207 -10.121,24.44 0.002,9.232 3.598,17.91 10.126,24.439 l 2.088,2.088 c 6.528,6.529 15.209,10.125 24.443,10.125 v 0 c 9.231,0 17.909,-3.594 24.437,-10.121 l 87.667,-87.666 49.061,-11.816 c 0.041,-0.01 0.082,-0.022 0.122,-0.031 6.563,-1.758 11.735,-6.928 13.497,-13.496 l 11.883,-44.352 c 1.757,-6.564 -0.136,-13.627 -4.935,-18.428 z M 257.26,368.406 c -1.888,1.889 -4.399,2.93 -7.071,2.93 -2.671,0 -5.183,-1.041 -7.072,-2.932 -1.887,-1.885 -2.928,-4.397 -2.928,-7.068 -0.001,-2.672 1.041,-5.185 2.931,-7.072 1.886,-1.887 4.398,-2.928 7.069,-2.928 2.672,0 5.184,1.041 7.072,2.93 1.887,1.885 2.928,4.396 2.928,7.068 0,2.672 -1.041,5.184 -2.929,7.072 z m 58.934,-62.471 -41.374,41.375 c -1.416,1.416 -3.3,2.197 -5.303,2.197 -2.003,0 -3.887,-0.781 -5.303,-2.197 -1.417,-1.416 -2.197,-3.299 -2.197,-5.303 0,-2.004 0.78,-3.887 2.197,-5.303 l 41.374,-41.375 c 1.417,-1.418 3.3,-2.197 5.303,-2.197 2.003,0 3.887,0.779 5.303,2.197 1.417,1.416 2.197,3.299 2.197,5.303 0,2.004 -0.78,3.887 -2.197,5.303 z"
   id="path4" />
</g>

</svg>
