<?xml version="1.0" encoding="UTF-8" standalone="no"?>
<!-- Generator: Adobe Illustrator 17.1.0, SVG Export Plug-In . SVG Version: 6.00 Build 0)  -->

<svg
   version="1.1"
   id="Capa_1"
   x="0px"
   y="0px"
   viewBox="0 0 256 256"
   xml:space="preserve"
   sodipodi:docname="library-tmp.svg"
   width="256"
   height="256"
   inkscape:version="1.1 (c4e8f9ed74, 2021-05-24)"
   xmlns:inkscape="http://www.inkscape.org/namespaces/inkscape"
   xmlns:sodipodi="http://sodipodi.sourceforge.net/DTD/sodipodi-0.dtd"
   xmlns="http://www.w3.org/2000/svg"
   xmlns:svg="http://www.w3.org/2000/svg"
   xmlns:rdf="http://www.w3.org/1999/02/22-rdf-syntax-ns#"
   xmlns:cc="http://creativecommons.org/ns#"><defs
   id="defs37" /><sodipodi:namedview
   id="namedview35"
   pagecolor="#ffffff"
   bordercolor="#666666"
   borderopacity="1.0"
   inkscape:pageshadow="2"
   inkscape:pageopacity="0.0"
   inkscape:pagecheckerboard="true"
   showgrid="false"
   width="256px"
   inkscape:zoom="3.5258128"
   inkscape:cx="192.15427"
   inkscape:cy="131.60086"
   inkscape:window-width="1862"
   inkscape:window-height="1054"
   inkscape:window-x="58"
   inkscape:window-y="0"
   inkscape:window-maximized="1"
   inkscape:current-layer="Capa_1"
   showguides="true"
   inkscape:guide-bbox="true"
   inkscape:snap-bbox="false" />
<path
   d="M 254.65864,79.99401 129.26744,10.328234 c -0.78835,-0.4372179 -1.7447,-0.4377389 -2.53253,-10e-4 L 1.3437171,79.881315 c -1.03930493,0.576522 -1.55739217,1.783827 -1.2600007,2.934784 0.2979132,1.151479 1.3366964,1.955479 2.5257405,1.955479 H 13.932767 V 96.0928 c 0,1.44052 1.167653,2.6087 2.608697,2.6087 h 11.323832 v 11.544 c 0,1.44053 1.167653,2.6087 2.608698,2.6087 h 6.679307 v 85.82874 h -6.679307 c -1.441045,0 -2.608698,1.16818 -2.608698,2.6087 v 11.32644 h -6.679829 c -1.441044,0 -2.608697,1.16818 -2.608697,2.6087 V 226.548 h -2.035306 c -1.441044,0 -2.608697,1.16818 -2.608697,2.6087 v 13.92992 c 0,1.44052 1.167653,2.6087 2.608697,2.6087 H 239.45984 c 1.44105,0 2.6087,-1.16818 2.6087,-2.6087 v -13.9294 c 0,-1.44052 -1.16765,-2.6087 -2.6087,-2.6087 h -2.0353 v -11.32174 c 0,-1.44052 -1.16765,-2.6087 -2.6087,-2.6087 h -6.67983 v -11.32644 c 0,-1.44052 -1.16765,-2.6087 -2.60869,-2.6087 h -6.67983 V 112.8542 h 6.67983 c 1.44104,0 2.60869,-1.16817 2.60869,-2.6087 v -11.544 h 11.32383 c 1.44105,0 2.6087,-1.16818 2.6087,-2.6087 V 84.79297 l 11.30244,0.09026 c 0.007,0 0.0141,0 0.0209,0 1.18435,0 2.22052,-0.797739 2.52261,-1.944522 0.30313,-1.153566 -0.21339,-2.365567 -1.25582,-2.944698 z M 78.950367,98.7015 v 11.544 c 0,1.44053 1.167653,2.6087 2.608697,2.6087 h 6.67983 v 85.82874 h -6.67983 c -1.441044,0 -2.608697,1.16818 -2.608697,2.6087 v 11.32644 h -4.070611 v -11.32644 c 0,-1.44052 -1.167652,-2.6087 -2.608697,-2.6087 H 65.59123 V 112.8542 h 6.679829 c 1.441045,0 2.608697,-1.16817 2.608697,-2.6087 v -11.544 z m 92.882663,113.91658 h -36.57968 v -8.71774 h 6.67983 23.22054 6.67983 v 8.71774 z M 144.54188,198.68294 V 112.8542 h 18.00314 v 85.82874 z m 20.66453,-91.04613 c -0.0183,-5.2e-4 -0.035,-0.005 -0.0532,-0.005 h -23.22054 c -0.0183,0 -0.035,0.005 -0.0532,0.005 h -6.62661 v -8.71775 h 36.57967 v 8.71775 z m -32.56175,5.21739 h 6.67983 v 85.82874 h -6.67983 c -1.44105,0 -2.6087,1.16818 -2.6087,2.6087 v 11.32644 h -4.07113 v -11.32644 c 0,-1.44052 -1.16766,-2.6087 -2.6087,-2.6087 H 116.6763 V 112.8542 h 6.67983 c 1.44104,0 2.6087,-1.16817 2.6087,-2.6087 v -11.544 h 4.07113 v 11.544 c 0,1.44053 1.16765,2.6087 2.6087,2.6087 z M 84.167761,98.91906 h 36.579669 v 8.71775 h -6.62661 c -0.0183,-5.2e-4 -0.035,-0.005 -0.0532,-0.005 H 90.847069 c -0.01826,0 -0.03496,0.005 -0.05322,0.005 H 84.16724 v -8.71775 z m 9.288527,13.93514 h 18.003142 v 85.82874 H 93.456288 Z m -2.608697,91.04614 h 23.220539 6.67982 v 8.71774 H 84.168283 v -8.71774 z M 33.082691,98.91906 h 36.579671 v 8.71775 H 63.03575 c -0.01826,-5.2e-4 -0.03496,-0.005 -0.05322,-0.005 H 39.761998 c -0.01826,0 -0.03496,0.005 -0.05322,0.005 h -6.62609 z m 9.288005,13.93514 h 18.00314 v 85.82874 h -18.00314 z m -9.288005,91.04614 h 6.679307 23.220535 6.679829 v 8.71774 H 33.082691 Z m 199.123929,22.64818 h -1.80574 c -1.44104,0 -2.60869,1.16818 -2.60869,2.6087 0,1.44052 1.16765,2.6087 2.60869,2.6087 h 4.41444 2.03531 v 8.71252 H 19.150161 v -8.71252 h 2.035306 193.553843 c 1.44104,0 2.6087,-1.16818 2.6087,-2.6087 0,-1.44052 -1.16766,-2.6087 -2.6087,-2.6087 H 23.794164 v -8.71304 h 6.67983 41.797065 9.288005 41.797066 9.28853 41.79706 9.28801 41.79706 6.67983 z m -9.28852,-13.93044 h -36.57968 v -8.71774 h 6.67983 23.22054 6.67983 v 8.71774 z m -9.28801,-13.93514 H 195.62695 V 112.8542 h 18.00314 z m 9.28801,-91.04613 h -6.62662 c -0.0183,-5.2e-4 -0.035,-0.005 -0.0532,-0.005 h -23.22054 c -0.0183,0 -0.035,0.005 -0.0532,0.005 h -6.62662 v -8.71775 h 36.57967 v 8.71775 z m -39.18837,5.21739 h 6.67983 v 85.82874 h -6.67983 c -1.44105,0 -2.6087,1.16818 -2.6087,2.6087 v 11.32644 h -4.07061 v -11.32644 c 0,-1.44052 -1.16765,-2.6087 -2.6087,-2.6087 h -6.67983 V 112.8542 h 6.67983 c 1.44105,0 2.6087,-1.16817 2.6087,-2.6087 v -11.544 h 4.07061 v 11.544 c 0,1.44053 1.16765,2.6087 2.6087,2.6087 z m 55.75046,-33.300016 c -0.007,0 -0.0141,0 -0.0209,0 h -5.2e-4 -7.49218 c -1.44104,0 -2.60869,1.168175 -2.60869,2.608697 0,1.440523 1.16765,2.608697 2.60869,2.608697 h 4.88401 V 93.4841 H 19.150161 V 84.771578 H 214.73879 c 1.44104,0 2.60869,-1.168174 2.60869,-2.608697 0,-1.440522 -1.16765,-2.608697 -2.60869,-2.608697 H 16.541464 12.690506 L 127.99961,15.592063 243.17828,79.583402 Z M 103.27803,35.285639 c -0.59008,0.495652 -0.93078,1.227131 -0.93078,1.99774 v 29.331146 c 0,1.266783 0.91043,2.350958 2.15844,2.569567 l 23.0447,4.039828 c 0.1487,0.02609 0.29948,0.03913 0.45026,0.03913 0.15079,0 0.30157,-0.01304 0.45027,-0.03913 l 23.0447,-4.039828 c 1.248,-0.218609 2.15844,-1.302784 2.15844,-2.569567 V 37.283379 c 0,-0.770609 -0.3407,-1.501566 -0.93078,-1.99774 -0.59009,-0.495653 -1.36853,-0.70487 -2.12818,-0.571827 l -22.59445,3.960524 -22.59444,-3.960524 c -0.75861,-0.132521 -1.53809,0.0767 -2.12818,0.571827 z m 4.28661,5.103133 17.82732,3.125219 v 17.37914 c 0,1.440522 1.16765,2.608697 2.60869,2.608697 1.44105,0 2.6087,-1.168175 2.6087,-2.608697 v -17.37914 l 17.82732,-3.125219 V 64.42322 l -17.82732,3.125219 v -0.105914 c 0,-1.440522 -1.16765,-2.608697 -2.6087,-2.608697 -1.44104,0 -2.60869,1.168175 -2.60869,2.608697 v 0.105914 L 107.56464,64.42322 Z M 53.980963,119.76047 v 73.82612 c 0,1.44053 -1.167653,2.6087 -2.608697,2.6087 -1.441045,0 -2.608697,-1.16817 -2.608697,-2.6087 v -73.82612 c 0,-1.44053 1.167652,-2.6087 2.608697,-2.6087 1.441044,0 2.608697,1.16817 2.608697,2.6087 z m 51.085067,0 v 73.82612 c 0,1.44053 -1.16765,2.6087 -2.60869,2.6087 -1.44105,0 -2.608701,-1.16817 -2.608701,-2.6087 v -73.82612 c 0,-1.44053 1.167651,-2.6087 2.608701,-2.6087 1.44104,0 2.60869,1.16817 2.60869,2.6087 z m 51.0856,0 v 73.82612 c 0,1.44053 -1.16766,2.6087 -2.6087,2.6087 -1.44105,0 -2.6087,-1.16817 -2.6087,-2.6087 v -73.82612 c 0,-1.44053 1.16765,-2.6087 2.6087,-2.6087 1.44104,0 2.6087,1.16817 2.6087,2.6087 z m 45.86819,73.82612 v -73.82612 c 0,-1.44053 1.16766,-2.6087 2.6087,-2.6087 1.44105,0 2.6087,1.16817 2.6087,2.6087 v 73.82612 c 0,1.44053 -1.16765,2.6087 -2.6087,2.6087 -1.44104,0 -2.6087,-1.16765 -2.6087,-2.6087 z"
   id="path2"
   style="stroke-width:0.521739;fill:#ffffff" />
<g
   id="g4">
</g>
<g
   id="g6">
</g>
<g
   id="g8">
</g>
<g
   id="g10">
</g>
<g
   id="g12">
</g>
<g
   id="g14">
</g>
<g
   id="g16">
</g>
<g
   id="g18">
</g>
<g
   id="g20">
</g>
<g
   id="g22">
</g>
<g
   id="g24">
</g>
<g
   id="g26">
</g>
<g
   id="g28">
</g>
<g
   id="g30">
</g>
<g
   id="g32">
</g>
<metadata
   id="metadata39"><rdf:RDF><cc:Work
       rdf:about=""><cc:license
         rdf:resource="http://creativecommons.org/publicdomain/zero/1.0/" /></cc:Work><cc:License
       rdf:about="http://creativecommons.org/publicdomain/zero/1.0/"><cc:permits
         rdf:resource="http://creativecommons.org/ns#Reproduction" /><cc:permits
         rdf:resource="http://creativecommons.org/ns#Distribution" /><cc:permits
         rdf:resource="http://creativecommons.org/ns#DerivativeWorks" /></cc:License></rdf:RDF></metadata></svg>
